<?xml version="1.0" encoding="UTF-8"?>
<svg xmlns="http://www.w3.org/2000/svg" xmlns:xlink="http://www.w3.org/1999/xlink" id="Camada_1" x="0px" y="0px" width="60px" height="80px" viewBox="0 0 60 80" xml:space="preserve">
<g>
	<path fill="#fff" d="M50.855,28.108c-0.289-0.658,0.146-1.407,0.272-1.832c0.194-0.648,0.194-1.106-0.103-1.121   c-0.199-0.012-0.431,0.148-0.58,0.369c-0.072,0.108-0.108,0.122-0.07-0.052c0.131-0.583,0.456-1.449,1.307-1.135   c0.715,0.267,0.403,1.28,0.152,1.774c-0.201,0.392-0.813,1.104-0.706,1.744c0.109,0.669,1.461,0.616,2.645,1.113   c1.234,0.52,1.677,1.659,2.556,1.787c0.061,0,0.119-0.005,0.177-0.014c0.009-0.001,0.02-0.006,0.031-0.008   c0.046-0.008,0.089-0.021,0.135-0.035c0.013-0.003,0.025-0.012,0.036-0.016c0.041-0.016,0.081-0.032,0.12-0.05   c0.022-0.013,0.044-0.028,0.066-0.04c0.028-0.018,0.055-0.031,0.082-0.049c0.035-0.025,0.069-0.052,0.102-0.079   c0.013-0.01,0.024-0.018,0.038-0.026c0.497-0.422,0.816-1.148,0.983-1.505c0.654-1.396,1.195-2.728,1.498-4.163   c0.413-1.974,0.454-4.062,0.149-5.94c-0.367-2.312-1.453-4.47-2.871-6.483c-1.532-2.164-3.784-3.917-6.688-5.204   c-2.198-0.974-4.792-1.688-7.713-2.128c-0.438-0.068-0.871-0.123-1.296-0.173c-0.237-0.028-0.467-0.052-0.699-0.077   c-0.174-0.018-0.352-0.037-0.525-0.056c-0.327-0.03-0.645-0.052-0.96-0.075c-0.062-0.003-0.123-0.009-0.183-0.012   c-0.358-0.023-0.709-0.045-1.048-0.06h-0.024c-0.093,0.111-0.648,1.271-0.733,2.012c-0.079,0.695-0.275,2.534-0.991,2.88   c-0.949,0.459-1.417,0.026-1.882-0.196c-0.291-0.138-0.854-0.269-1.078-0.011c-0.331,0.38,0.056,0.795,0.248,0.957   c-0.589,0.083-1.138-1.161-0.543-1.653c0.378-0.312,0.755-0.215,1.734,0.433c1.011,0.664,1.419,0.151,1.566-0.14   c0.406-0.802,0.578-2.545,0.691-3.292c0.115-0.75,0.904-1.501,1.048-2.376c0.009-0.071,0.021-0.146,0.021-0.206   c0-0.655-0.485-1.013-0.656-1.135c-1.889-1.33-5.685-1.801-7.219-1.801c-1.403,0-5.328,0.471-7.215,1.801   c-0.173,0.122-0.656,0.479-0.656,1.135c0,0.055,0.01,0.135,0.02,0.206c0.144,0.875,0.932,1.626,1.047,2.376   c0.113,0.747,0.283,2.49,0.69,3.292c0.15,0.291,0.557,0.804,1.568,0.14c0.979-0.647,1.358-0.744,1.732-0.433   c0.594,0.492,0.048,1.736-0.542,1.653c0.191-0.162,0.58-0.577,0.25-0.957c-0.227-0.258-0.788-0.127-1.077,0.011   c-0.468,0.223-0.937,0.655-1.884,0.196c-0.714-0.346-0.911-2.185-0.99-2.88c-0.085-0.741-0.642-1.9-0.736-2.012   c-0.348,0.015-0.709,0.036-1.081,0.06c-0.036,0.003-0.072,0.005-0.109,0.009c-0.335,0.021-0.677,0.048-1.029,0.079   c-0.157,0.018-0.319,0.037-0.477,0.052c-0.247,0.022-0.49,0.046-0.744,0.08c-0.424,0.05-0.855,0.104-1.294,0.173   c-2.921,0.439-5.514,1.154-7.712,2.128c-2.904,1.287-5.155,3.04-6.689,5.204c-1.419,2.014-2.505,4.171-2.874,6.483   c-0.3,1.878-0.26,3.967,0.154,5.94c0.301,1.436,0.838,2.768,1.497,4.163c0.245,0.515,0.811,1.821,1.771,1.821   c0.878-0.128,1.32-1.268,2.554-1.787c1.185-0.497,2.535-0.444,2.648-1.113c0.104-0.64-0.509-1.353-0.708-1.744   c-0.252-0.494-0.56-1.508,0.154-1.774c0.848-0.314,1.172,0.552,1.303,1.135c0.038,0.174,0.002,0.16-0.07,0.052   c-0.147-0.221-0.38-0.381-0.579-0.369c-0.298,0.015-0.298,0.473-0.101,1.121c0.126,0.425,0.56,1.174,0.272,1.832   c-0.27,0.613-1.379,0.56-2.553,1.216c-1.077,0.6-1.699,1.289-2.458,1.64c-0.027,0.574-0.128,1.121-0.328,1.604   c0.082,0.076,0.326,0.226,0.533,0.346c0.247,0.151,0.5,0.301,0.688,0.447c0.212,0.164,0.368,0.347,0.27,0.975   c-0.09,0.571-0.629,1.059-1.055,0.863c-0.232-0.104-0.42-0.203-0.498-0.237c-0.116-0.017-0.224-0.024-0.25-0.003   c-0.043,0.033-0.011,0.1,0.084,0.162c0.092,0.062,0.467,0.449,0.569,0.485c0.102,0.033-0.159,0.443,0.239,0.972   c-0.375,0.085-1.227-0.436-0.968-1.682c0.262-1.243,1.08-0.668,0.934-0.228c-0.036,0.099-0.071,0.171-0.104,0.227   c0.075,0.091,0.223,0.148,0.383,0.041c0.112-0.075,0.31-0.288,0.385-0.682c0.052-0.278-0.094-0.542-0.195-0.617   c-0.172-0.134-0.417-0.282-0.654-0.423c-0.214-0.127-0.371-0.244-0.507-0.34c-0.002,0-0.004,0.001-0.005,0.001   c-0.377-0.313-0.76-0.449-1.107-0.449c-0.974,0-1.68,1.043-1.271,2.078c0.229,0.575,1.013,0.753,1.415,1.135   c0.511,0.483,0.586,1.112,1.506,1.296c0.051,0.011,0.103,0.018,0.153,0.018c0.893,0,1.609-1.586,1.896-2.854l0.011,0.006   c-0.132,0.505-0.261,1.093-0.362,1.738c-0.139,0.868-0.159,1.714-0.062,2.509c0.121,0.984,0.28,1.909,0.753,2.75   c0.271,0.486,0.781,0.784,1.328,0.784c0.027,0,0.056,0,0.083-0.006l1.068-0.249c0.601-0.029,1.022,0.089,1.394-0.794   c0.039-0.092,0.212-0.573,0.269-1.203c0.007-0.094,0.017-0.188,0.021-0.28c0.004-0.057,0.009-0.104,0.011-0.153   c0.004-0.046,0.005-0.086,0.007-0.126c0.001-0.063,0.003-0.126,0.003-0.187c0-0.026-0.002-0.053-0.002-0.079   c-0.001-0.068-0.004-0.134-0.01-0.197c-0.002-0.014-0.005-0.027-0.006-0.044c-0.04-0.302-0.144-0.554-0.379-0.696   c-0.099-0.053-0.344-0.158-0.62-0.102c-0.021,0.007-0.042,0.016-0.063,0.02c-0.012,0.003-0.021,0.006-0.033,0.009   c-0.04,0.013-0.08,0.03-0.12,0.055c-0.46,0.269-0.721,1.38-0.358,2.278c0.042,0.104,0.603-0.014,0.505-0.14   c-0.05-0.068-0.434-0.653-0.221-1.367c0.102-0.337,0.309-0.707,0.667-0.479c0.368,0.231,0.351,0.997,0.283,0.979   c-0.069-0.013-0.113-0.308-0.37-0.114c-0.188,0.136-0.188,0.609-0.14,0.852c0.043,0.241,0.125,0.37,0.021,0.383   c-0.101,0.016-0.627,0.121-0.609,0.164c0.051,0.141,0.302,0.095,0.46,0.07c0.158-0.02,0.102,0.192,0.204,0.227   c0.102,0.034,0.127-0.177,0.207-0.165c0.079,0.009,0.029,0.128-0.016,0.28c-0.044,0.146-0.117,0.225-0.414,0.19   c-0.466-0.052-1.004-0.079-1.084-3.48l0.001-0.009v-0.009c0-0.092,0.006-0.18,0.007-0.272c0.004-0.096,0.007-0.193,0.016-0.291   c0.008-0.088,0.017-0.172,0.028-0.259c0.014-0.112,0.029-0.218,0.046-0.328c0.012-0.066,0.022-0.131,0.033-0.191   c0.035-0.178,0.072-0.347,0.114-0.51c0.048-0.19,0.103-0.373,0.156-0.548l0.012,0.007c0.116-0.307,0.484-1.347,0.469-1.391   c1.174-3.937,0.742-6.844,0.596-7.638c-0.02-0.106-0.041-0.207-0.067-0.317c-0.177-0.746-0.53-1.556-1.193-1.796H8.778   C8.42,23.897,7.6,23.989,7.295,24.635c-0.459,0.98,0.406,2.198,0.508,2.39c0.058,0.109,0.109,0.223,0.07,0.234   c-0.335,0.105-1.182-1.761-1.484-2.817c-0.75-2.501-0.833-5.605,1.33-8.669c2.196-3.11,6.947-4.406,10.545-4.95   c2.375-0.356,4.621-0.443,6.253-0.443c0.397,0,0.756,0.007,1.072,0.014c0.219,0.003,0.458,0.023,0.692,0.023   c0.062,0,0.124-0.005,0.184-0.007c0.686-0.055,1.166-0.7,1.166-1.49c0-0.826-0.534-1.35-1.254-1.487   c-1.221-0.236-1.961,0.8-1.886,1.127c0.045,0.201,0.158,0.323,0.418,0.312c0.095-0.004,0.065,0.225-0.249,0.2   c-0.406-0.032-0.666-0.282-0.666-0.695C24,7.699,25.283,7.107,26.856,6.6c0.274-0.091,0.546-0.164,0.802-0.224   c1.175-0.278,2.083-0.28,2.286-0.28c0.204,0,1.114,0.002,2.288,0.28c0.256,0.06,0.527,0.133,0.805,0.224   c1.568,0.507,2.853,1.099,2.86,1.776c0,0.413-0.262,0.663-0.666,0.695c-0.312,0.024-0.344-0.204-0.248-0.2   c0.261,0.011,0.373-0.111,0.419-0.312c0.073-0.327-0.666-1.363-1.888-1.127c-0.719,0.138-1.257,0.661-1.257,1.487   c0,0.79,0.484,1.436,1.168,1.49c0.061,0.002,0.123,0.007,0.185,0.007c0.236,0,0.474-0.021,0.691-0.023   c0.315-0.007,0.678-0.014,1.072-0.014c1.632,0,3.878,0.087,6.251,0.443c3.602,0.544,8.349,1.84,10.548,4.95   c2.16,3.063,2.078,6.168,1.329,8.669c-0.304,1.057-1.149,2.923-1.484,2.817c-0.042-0.012,0.012-0.125,0.07-0.234   c0.104-0.191,0.968-1.409,0.506-2.39c-0.301-0.645-1.12-0.738-1.48-0.66c-0.665,0.237-1.02,1.053-1.197,1.799   c-0.024,0.11-0.045,0.211-0.065,0.317c-0.145,0.794-0.577,3.701,0.596,7.638c-0.016,0.044,0.354,1.084,0.469,1.391l0.013-0.007   c0.053,0.175,0.106,0.357,0.155,0.548c0.042,0.163,0.078,0.332,0.113,0.506c0.012,0.064,0.023,0.129,0.033,0.195   c0.017,0.11,0.034,0.216,0.048,0.329c0.01,0.086,0.02,0.168,0.026,0.254c0.008,0.105,0.011,0.206,0.016,0.31   c0.002,0.087,0.008,0.167,0.008,0.255v0.007l0.002,0.014c-0.083,3.401-0.62,3.429-1.089,3.48c-0.293,0.034-0.365-0.044-0.41-0.19   c-0.047-0.152-0.094-0.271-0.016-0.28c0.081-0.012,0.104,0.199,0.208,0.165c0.1-0.034,0.043-0.246,0.204-0.227   c0.157,0.024,0.405,0.07,0.46-0.07c0.017-0.043-0.509-0.148-0.611-0.164c-0.102-0.013-0.022-0.142,0.022-0.383   c0.044-0.242,0.044-0.716-0.141-0.852c-0.256-0.193-0.301,0.102-0.37,0.114c-0.067,0.018-0.085-0.748,0.283-0.979   c0.358-0.229,0.566,0.142,0.666,0.479c0.214,0.714-0.171,1.299-0.222,1.367c-0.098,0.126,0.463,0.243,0.507,0.14   c0.363-0.898,0.1-2.01-0.36-2.278c-0.04-0.024-0.081-0.042-0.121-0.055c-0.031-0.011-0.062-0.02-0.095-0.028   c-0.274-0.057-0.521,0.049-0.62,0.102c-0.238,0.143-0.342,0.401-0.38,0.708l-0.002,0.016c-0.008,0.077-0.012,0.15-0.014,0.223   v0.048c-0.002,0.074,0,0.146,0.002,0.22c0.002,0.019,0.002,0.038,0.004,0.06c0.008,0.16,0.02,0.32,0.036,0.489   c0.058,0.63,0.23,1.111,0.268,1.203c0.372,0.883,0.795,0.765,1.392,0.794l1.072,0.249c0.024,0.006,0.054,0.006,0.079,0.006   c0.55,0,1.058-0.298,1.331-0.784c0.472-0.841,0.634-1.766,0.753-2.75c0.097-0.795,0.075-1.641-0.062-2.509   c-0.102-0.646-0.23-1.233-0.361-1.738l0.01-0.006c0.287,1.269,1.005,2.854,1.897,2.854c0.051,0,0.1-0.007,0.15-0.018   c0.921-0.184,0.997-0.812,1.506-1.296c0.4-0.382,1.188-0.56,1.416-1.135c0.41-1.035-0.299-2.078-1.271-2.078   c-0.349,0-0.73,0.136-1.104,0.449c-0.003,0-0.007-0.001-0.011-0.001c-0.136,0.096-0.291,0.213-0.504,0.34   c-0.237,0.141-0.481,0.289-0.654,0.423c-0.103,0.075-0.247,0.339-0.194,0.617c0.072,0.394,0.271,0.606,0.384,0.682   c0.159,0.107,0.311,0.05,0.383-0.041c-0.034-0.056-0.068-0.128-0.104-0.227c-0.146-0.44,0.668-1.016,0.932,0.228   c0.261,1.246-0.592,1.767-0.966,1.682c0.396-0.528,0.136-0.938,0.238-0.972c0.103-0.036,0.476-0.423,0.57-0.485   c0.093-0.062,0.127-0.129,0.081-0.162c-0.022-0.021-0.132-0.014-0.247,0.003c-0.075,0.034-0.269,0.133-0.498,0.237   c-0.425,0.195-0.966-0.292-1.055-0.863c-0.099-0.628,0.056-0.811,0.271-0.975c0.188-0.146,0.439-0.296,0.686-0.447   c0.207-0.12,0.452-0.27,0.534-0.346c-0.203-0.482-0.302-1.029-0.328-1.604c-0.761-0.351-1.381-1.04-2.458-1.64   C52.232,28.667,51.124,28.721,50.855,28.108"></path>
	<line fill="#FFFFFF" x1="37.907" y1="63.23" x2="37.256" y2="63.23"></line>
	<line fill="#FFFFFF" x1="22.693" y1="63.23" x2="21.982" y2="63.23"></line>
	<path fill="#FFFFFF" d="M30.997,46.234v-1.139c0-0.098,0.077-0.17,0.169-0.17h1.121c0.045,0,0.086,0.014,0.116,0.046l1.282,1.257   v-4.745l-1.282,1.259c-0.03,0.029-0.071,0.047-0.116,0.047h-1.121c-0.093,0-0.169-0.076-0.169-0.171V41.48   c0-0.045,0.017-0.087,0.048-0.119l1.238-1.302h-4.673l1.237,1.302c0.03,0.032,0.045,0.074,0.045,0.119v1.138   c0,0.095-0.074,0.171-0.167,0.171h-1.124c-0.042,0-0.084-0.018-0.115-0.049l-1.283-1.257v4.745l1.283-1.257   c0.03-0.032,0.072-0.046,0.115-0.046h1.124c0.092,0,0.167,0.072,0.167,0.17v1.139c0,0.045-0.015,0.084-0.045,0.117l-1.237,1.301   h4.673l-1.238-1.301C31.013,46.318,30.997,46.279,30.997,46.234 M30.47,46.138c0,0.093-0.075,0.169-0.167,0.169H29.65   c-0.092,0-0.167-0.076-0.167-0.169v-1.726h-1.785c-0.091,0-0.167-0.077-0.167-0.171v-0.656c0-0.099,0.077-0.173,0.167-0.173h1.785   v-1.838c0-0.092,0.076-0.17,0.167-0.17h0.652c0.092,0,0.167,0.078,0.167,0.17v1.838h1.721c0.093,0,0.167,0.074,0.167,0.173v0.656   c0,0.094-0.074,0.171-0.167,0.171H30.47V46.138z"></path>
	<path fill="#FFFFFF" d="M32.283,40.059l-1.239,1.302c-0.032,0.032-0.047,0.074-0.047,0.119v1.139c0,0.094,0.076,0.17,0.169,0.17   h1.121c0.045,0,0.087-0.018,0.117-0.047l1.28-1.259v4.745l-1.28-1.257c-0.03-0.032-0.072-0.046-0.117-0.046h-1.121   c-0.093,0-0.169,0.072-0.169,0.17v1.139c0,0.045,0.016,0.084,0.047,0.117l1.239,1.301h-4.674l1.237-1.301   c0.029-0.033,0.045-0.072,0.045-0.117v-1.139c0-0.098-0.075-0.17-0.167-0.17h-1.123c-0.043,0-0.084,0.014-0.115,0.046l-1.284,1.257   v-4.745l1.284,1.257c0.03,0.031,0.071,0.049,0.115,0.049h1.123c0.092,0,0.167-0.076,0.167-0.17V41.48   c0-0.045-0.016-0.087-0.045-0.119l-1.237-1.302H32.283 M29.483,43.413h-1.785c-0.092,0-0.168,0.074-0.168,0.173v0.657   c0,0.093,0.077,0.17,0.168,0.17h1.785v1.726c0,0.093,0.076,0.169,0.167,0.169h0.651c0.093,0,0.168-0.076,0.168-0.169v-1.726h1.722   c0.092,0,0.166-0.077,0.166-0.17v-0.657c0-0.099-0.074-0.173-0.166-0.173h-1.722v-1.838c0-0.092-0.075-0.17-0.168-0.17h-0.651   c-0.091,0-0.167,0.078-0.167,0.17V43.413 M32.679,39.888h-5.467l1.513,1.592v1.139h-1.123l-1.566-1.538v5.55l1.566-1.535h1.123   v1.139l-1.513,1.588h5.467l-1.513-1.588v-1.139h1.121l1.567,1.535v-5.55l-1.567,1.538h-1.121V41.48L32.679,39.888z M27.699,44.243   v-0.657h1.952v-2.011h0.651v2.011h1.89v0.657h-1.89v1.896h-0.651v-1.896H27.699z"></path>
	<path fill="#FFFFFF" d="M48.582,36.125l-0.647-0.676h-0.002c-0.002-0.002-0.004-0.002-0.006-0.002   c-0.028-0.028-0.065-0.038-0.101-0.043c-0.007,0-0.009-0.004-0.015-0.004H12.077c-0.044,0-0.087,0.018-0.117,0.047   c-0.034,0.031-0.051,0.075-0.051,0.123v25.486c0,5.119,2.088,9.753,5.438,13.08c3.297,3.623,8.018,5.898,13.247,5.898   c9.947,0,18.037-8.21,18.037-18.301V36.246C48.63,36.201,48.612,36.161,48.582,36.125 M12.942,36.426h34.304v0.333v14.034H12.942   V36.426z M21.5,76.824c-0.26-0.146-0.519-0.292-0.772-0.448c0.108,0.018,0.209,0.039,0.306,0.065   c0.248,0.057,0.504,0.118,1.006,0.118c0.504,0,0.762-0.062,1.008-0.118c0.245-0.061,0.476-0.118,0.952-0.118   c0.475,0,0.708,0.058,0.953,0.118c0.02,0.003,0.041,0.009,0.06,0.013c0.007,0.127,0.022,0.252,0.054,0.373   c-0.125-0.017-0.26-0.029-0.44-0.029c-0.459,0-0.692,0.064-0.918,0.128c-0.218,0.056-0.427,0.115-0.855,0.115   c-0.426,0-0.634-0.06-0.853-0.115C21.856,76.884,21.704,76.848,21.5,76.824 M31.196,68.606c-0.114,0.078-0.22,0.168-0.325,0.253   c-0.096,0.08-0.186,0.163-0.276,0.248c-0.17,0.167-0.333,0.342-0.474,0.53c-0.1,0.136-0.194,0.272-0.279,0.413   c-0.745,1.26-0.513,3.009,0.152,4.143c-0.746-0.247-1.541-0.372-2.371-0.372c-0.796,0-1.401,0.116-1.667,0.177   c0.004-0.62,0.182-3.127,2.64-5.026c0.269-0.076,0.531-0.138,0.783-0.188c0.01-0.003,0.018-0.003,0.028-0.003   C30.066,68.646,30.668,68.583,31.196,68.606 M30.121,67.477c-0.388-0.616-0.179-1.121,0-1.418V67.477z M34.409,67.862   c0.062,0.074,0.138,0.165,0.158,0.211c0.103,0.218-0.038,0.492-0.225,0.635c-0.184,0.145-0.444,0.163-0.666,0.047   c-0.019-0.021-0.05-0.022-0.078-0.015c-0.039,0.015-0.062,0.059-0.054,0.099c0.06,0.249-0.025,0.506-0.215,0.654   c-0.187,0.143-0.448,0.162-0.667,0.043c-0.021-0.015-0.052-0.021-0.079-0.01c-0.042,0.014-0.064,0.057-0.056,0.096   c0.06,0.252-0.025,0.508-0.215,0.655c-0.095,0.07-0.209,0.111-0.328,0.122c-0.004,0-0.009-0.003-0.016-0.003   c-0.106,0.005-0.221-0.018-0.324-0.074c-0.023-0.02-0.055-0.021-0.083-0.008c-0.037,0.012-0.057,0.056-0.049,0.094   c0.06,0.252-0.024,0.507-0.216,0.653c-0.026,0.019-0.055,0.034-0.084,0.047c-0.044,0.024-0.088,0.044-0.134,0.052   c-0.005,0.001-0.009,0.001-0.013,0.004c-0.044,0.008-0.088,0.018-0.13,0.018c-0.019,0-0.038-0.004-0.055-0.006   c-0.033-0.004-0.065-0.007-0.096-0.012c-0.055-0.012-0.108-0.031-0.157-0.06c-0.025-0.016-0.061-0.021-0.089-0.002   c-0.032,0.017-0.049,0.055-0.04,0.091c0.057,0.249-0.027,0.508-0.218,0.655c-0.109,0.082-0.244,0.118-0.381,0.113   c-0.017,0-0.033,0-0.049-0.003c-0.078-0.008-0.153-0.026-0.225-0.062c0-0.118,0.008-0.233,0.018-0.35l0.477-0.369l1.78-1.377   L34.409,67.862z M31.901,69.5v-0.818c0.33,0.08,0.55,0.22,0.656,0.309L31.901,69.5z M33.865,72.809   c-0.036,0.024-0.073,0.039-0.111,0.054h-0.003c-0.037,0.013-0.078,0.02-0.119,0.02c-0.074,0-0.151-0.018-0.217-0.057   c-0.025-0.017-0.06-0.023-0.085-0.012c-0.037,0.015-0.059,0.058-0.05,0.098c0.035,0.17-0.028,0.343-0.159,0.438   c-0.129,0.092-0.305,0.102-0.447,0.019c-0.023-0.017-0.05-0.025-0.077-0.017c-0.043,0.014-0.07,0.055-0.059,0.102   c0.029,0.15-0.061,0.355-0.208,0.461c-0.027,0.022-0.064,0.033-0.106,0.041c-0.017,0.006-0.034,0.006-0.054,0.008   c-0.021,0.003-0.042,0.005-0.063,0.005c-0.031-0.002-0.06-0.005-0.084-0.01c-0.01-0.003-0.018-0.003-0.025-0.004   c-0.035-0.007-0.065-0.015-0.096-0.028c-0.025-0.012-0.055-0.02-0.07-0.035v-0.127l2.823-2.03c0.039,0.063,0.076,0.132,0.084,0.153   c0.05,0.146,0.001,0.282-0.131,0.379c-0.128,0.095-0.305,0.104-0.45,0.021c-0.019-0.02-0.045-0.021-0.075-0.02   c-0.042,0.014-0.068,0.057-0.061,0.102C34.057,72.539,33.995,72.71,33.865,72.809 M34.361,74.572   c-0.247,0.099-0.53,0.196-0.834,0.264l-0.002-1.733L34.361,74.572z M32.885,73.591c0.107,0,0.212-0.027,0.306-0.087l0.002,1.397   c-0.196,0.03-0.396,0.051-0.602,0.051c-0.176,0-0.346-0.018-0.511-0.045L32.885,73.591z M31.901,74.747V74.11   c0.066,0.022,0.138,0.031,0.208,0.031c0.061,0,0.12-0.007,0.175-0.022L31.901,74.747z M31.901,73.42v-2.855   c0.061,0.004,0.121,0.002,0.177-0.006l1.104,1.938L31.901,73.42z M30.585,74.502c0.001-0.409,0.002-0.802,0.002-1.173l0.807-2.129   c0.002,0,0.006-0.003,0.006-0.003c0.067-0.051,0.119-0.118,0.165-0.19v4.136L30.585,74.502z M31.565,75.425v0.143   c-0.165,0.146-0.454,0.22-0.89,0.22c-0.029,0-0.064-0.004-0.092-0.007c0-0.343,0-0.674,0.002-0.996L31.565,75.425z M30.588,72.759   c0-0.365,0.001-0.702,0.001-1.031c0.066-0.128,0.101-0.27,0.095-0.413c0.147,0.043,0.303,0.043,0.448,0.008L30.588,72.759z    M30.121,74.559v1.195c-0.145-0.015-0.288-0.026-0.437-0.046L30.121,74.559z M29.479,75.684c-0.086-0.016-0.172-0.023-0.259-0.035   l-0.067-0.01c-0.149-0.021-0.285-0.037-0.407-0.053c-0.871-0.109-1.005-0.129-1.418-0.824c-0.154-0.258-0.576-0.434-1.055-0.583   c0.311-0.056,0.78-0.118,1.352-0.118c0.816,0,1.595,0.13,2.326,0.378L29.479,75.684z M30.121,72.105v1.82   c-0.274-0.53-0.454-1.183-0.485-1.848c0.094,0.036,0.188,0.062,0.284,0.062C29.989,72.139,30.055,72.125,30.121,72.105    M29.672,71.225c0.063-0.373,0.182-0.73,0.372-1.049c0.021-0.04,0.051-0.074,0.077-0.113v0.811L29.672,71.225z M31.565,69.76   l-0.973,0.751c0-0.379,0-0.734,0-1.06c0.281-0.301,0.604-0.573,0.973-0.801V69.76z M27.125,74.885   c0.474,0.799,0.711,0.827,1.591,0.938c0.124,0.018,0.256,0.03,0.405,0.052l0.068,0.009c0.505,0.069,1.028,0.144,1.487,0.144   c0.13,0,0.249-0.01,0.358-0.019c0.078-0.011,0.147-0.023,0.211-0.04c0.024-0.007,0.051-0.011,0.074-0.016   c0.081-0.023,0.152-0.049,0.215-0.083c0.005-0.001,0.008-0.004,0.013-0.007c0.067-0.031,0.127-0.072,0.179-0.119   c0.027-0.024,0.059-0.042,0.081-0.066c0.042-0.053,0.067-0.114,0.095-0.178c0.019-0.043,0.033-0.088,0.047-0.135   c0.014-0.072,0.032-0.146,0.031-0.229c0.196,0.035,0.402,0.052,0.611,0.052c1.137,0,2.158-0.497,2.618-0.763   c-0.088,0.262-0.244,0.612-0.406,0.665c-0.044,0.016-0.074,0.056-0.08,0.103c-0.055,0.551-0.349,0.585-0.36,0.585   c-0.03,0.002-0.06,0.02-0.08,0.043c-0.021,0.026-0.033,0.054-0.03,0.088c0.011,0.144,0.011,0.271,0.005,0.386v0.002   c-0.016,0.303-0.081,0.522-0.16,0.684c-0.117,0.024-0.248,0.045-0.423,0.053c-0.058,0.002-0.121,0.007-0.191,0.007   c-0.426,0-0.634-0.06-0.854-0.115c-0.224-0.063-0.458-0.128-0.916-0.128s-0.689,0.064-0.915,0.128   c-0.221,0.056-0.429,0.115-0.855,0.115c-0.428,0-0.636-0.06-0.856-0.115c-0.225-0.063-0.457-0.128-0.917-0.128   c-0.458,0-0.691,0.064-0.914,0.128c-0.221,0.056-0.43,0.115-0.856,0.115c-0.427,0-0.635-0.06-0.856-0.115   c-0.067-0.022-0.139-0.038-0.214-0.056h0.002c-0.022-0.056-0.04-0.116-0.052-0.178c-0.027-0.133-0.034-0.282-0.034-0.433v-0.003   c0-0.088,0.002-0.173,0.003-0.258c0.013-0.432,0.027-0.878-0.257-1.127c-0.457-0.402-0.382-0.792-0.307-0.979   c0.233,0.144,0.611,0.25,1.041,0.373C26.306,74.434,26.968,74.624,27.125,74.885 M25.655,78.477   c0.254,0.014,0.408,0.059,0.561,0.109c0.084,0.026,0.17,0.052,0.271,0.076C26.208,78.603,25.929,78.545,25.655,78.477    M29.945,79.016c-1.161,0-2.29-0.122-3.386-0.341c0.115,0.021,0.251,0.035,0.432,0.035c0.386,0,0.582-0.063,0.772-0.124   c0.182-0.06,0.353-0.116,0.703-0.116c0.352,0,0.521,0.057,0.702,0.116c0.191,0.061,0.386,0.124,0.771,0.124   c0.389,0,0.584-0.063,0.776-0.124c0.181-0.06,0.351-0.116,0.703-0.116c0.351,0,0.522,0.057,0.703,0.116   c0.188,0.061,0.385,0.124,0.771,0.124c0.389,0,0.585-0.063,0.776-0.124c0.158-0.055,0.319-0.101,0.593-0.109   C32.881,78.83,31.433,79.016,29.945,79.016 M34.915,78.291c-0.139-0.034-0.304-0.058-0.548-0.058c-0.386,0-0.581,0.063-0.771,0.123   c-0.182,0.061-0.353,0.114-0.705,0.114c-0.35,0-0.521-0.054-0.7-0.114c-0.19-0.06-0.387-0.123-0.774-0.123   c-0.387,0-0.584,0.063-0.775,0.123c-0.18,0.061-0.35,0.114-0.703,0.114c-0.349,0-0.519-0.054-0.701-0.114   c-0.189-0.06-0.385-0.123-0.772-0.123c-0.386,0-0.584,0.063-0.774,0.123c-0.18,0.061-0.352,0.114-0.701,0.114   c-0.351,0-0.522-0.054-0.704-0.114c-0.188-0.06-0.386-0.123-0.773-0.123c-0.233,0-0.393,0.023-0.529,0.053   c-0.322-0.093-0.639-0.199-0.954-0.313c0.195-0.022,0.336-0.062,0.47-0.105c0.191-0.057,0.374-0.112,0.747-0.112   c0.375,0,0.556,0.056,0.748,0.112c0.2,0.065,0.409,0.127,0.816,0.127c0.409,0,0.617-0.062,0.817-0.127   c0.192-0.057,0.372-0.112,0.748-0.112c0.374,0,0.556,0.056,0.747,0.112c0.201,0.065,0.409,0.127,0.814,0.127   c0.41,0,0.617-0.062,0.818-0.127c0.193-0.057,0.375-0.112,0.748-0.112c0.376,0,0.557,0.056,0.749,0.112   c0.2,0.065,0.408,0.127,0.816,0.127c0.407,0,0.615-0.062,0.815-0.127c0.193-0.057,0.376-0.112,0.749-0.112   c0.375,0,0.557,0.056,0.751,0.112c0.137,0.044,0.285,0.087,0.496,0.106C35.563,78.088,35.242,78.196,34.915,78.291 M36.491,77.741   c-0.085,0.009-0.176,0.014-0.288,0.014c-0.376,0-0.56-0.056-0.751-0.111c-0.2-0.064-0.408-0.127-0.818-0.127   s-0.616,0.062-0.816,0.127c-0.192,0.056-0.375,0.111-0.748,0.111c-0.374,0-0.556-0.056-0.748-0.111   c-0.201-0.064-0.409-0.127-0.817-0.127c-0.407,0-0.614,0.062-0.815,0.127c-0.193,0.056-0.375,0.111-0.75,0.111   c-0.373,0-0.554-0.056-0.747-0.111c-0.199-0.064-0.408-0.127-0.815-0.127c-0.408,0-0.616,0.062-0.817,0.127   c-0.191,0.056-0.373,0.111-0.748,0.111c-0.375,0-0.555-0.056-0.746-0.111c-0.202-0.064-0.409-0.127-0.818-0.127   c-0.408,0-0.614,0.062-0.816,0.127c-0.192,0.056-0.374,0.111-0.749,0.111c-0.115,0-0.206-0.005-0.29-0.014   c-0.386-0.157-0.763-0.329-1.135-0.516c0.154,0.031,0.336,0.053,0.593,0.053c0.461,0,0.693-0.063,0.917-0.125   c0.221-0.059,0.429-0.112,0.856-0.112c0.425,0,0.636,0.054,0.855,0.112c0.224,0.062,0.458,0.125,0.916,0.125   c0.459,0,0.693-0.063,0.917-0.125c0.218-0.059,0.426-0.112,0.853-0.112c0.43,0,0.637,0.054,0.857,0.112   c0.224,0.062,0.457,0.125,0.917,0.125c0.457,0,0.69-0.063,0.914-0.125c0.221-0.059,0.43-0.112,0.856-0.112   c0.428,0,0.636,0.054,0.855,0.112c0.228,0.062,0.459,0.125,0.915,0.125c0.46,0,0.693-0.063,0.918-0.125   c0.221-0.059,0.428-0.112,0.856-0.112c0.428,0,0.637,0.054,0.857,0.112c0.224,0.062,0.458,0.125,0.918,0.125   c0.271,0,0.461-0.023,0.618-0.055C37.272,77.412,36.886,77.579,36.491,77.741 M38.423,76.82c-0.223,0.023-0.383,0.064-0.533,0.105   c-0.221,0.056-0.429,0.115-0.857,0.115c-0.43,0-0.638-0.06-0.858-0.115c-0.226-0.063-0.457-0.128-0.917-0.128   c-0.436,0-0.667,0.059-0.881,0.115c0.042-0.118,0.075-0.249,0.096-0.402c0.125-0.022,0.235-0.044,0.339-0.069   c0.246-0.061,0.478-0.118,0.953-0.118c0.478,0,0.71,0.058,0.954,0.118c0.249,0.057,0.505,0.118,1.01,0.118s0.763-0.062,1.01-0.118   c0.145-0.037,0.292-0.07,0.478-0.093C38.956,76.51,38.692,76.669,38.423,76.82 M39.412,76.009   c-0.442,0.003-0.683,0.062-0.912,0.115c-0.237,0.06-0.464,0.111-0.93,0.111c-0.462,0-0.685-0.052-0.926-0.111   c-0.24-0.061-0.488-0.119-0.979-0.119c-0.487,0-0.738,0.059-0.979,0.119c-0.081,0.02-0.163,0.037-0.253,0.056   c0.005-0.085,0.005-0.171-0.002-0.264c0.144-0.057,0.377-0.216,0.444-0.687c0.359-0.209,0.554-1.039,0.554-1.084   c0-0.039-0.024-0.082-0.062-0.101c-0.037-0.02-0.081-0.018-0.117,0.007c-0.008,0.007-0.303,0.201-0.764,0.406l-0.802-1.405   c0.085-0.019,0.164-0.046,0.231-0.095c0.141-0.104,0.223-0.271,0.233-0.447c0.166,0.051,0.347,0.022,0.488-0.077   c0.186-0.14,0.259-0.347,0.188-0.559c-0.014-0.048-0.066-0.135-0.103-0.194l0.121-0.087c0.053-0.037,0.062-0.111,0.026-0.16   c-0.036-0.052-0.109-0.065-0.159-0.031l-1.221,0.879v-0.383c0-0.09-0.073-0.162-0.163-0.162c-0.091,0-0.161,0.073-0.161,0.168   v0.229l-0.888-1.558c0.048-0.024,0.096-0.049,0.137-0.082c0.198-0.15,0.302-0.395,0.292-0.648c0.237,0.077,0.5,0.039,0.693-0.111   c0.198-0.152,0.304-0.397,0.29-0.651c0.241,0.079,0.499,0.036,0.695-0.112c0.236-0.183,0.404-0.524,0.267-0.822   c-0.03-0.065-0.114-0.167-0.172-0.232l0.141-0.111c0.049-0.037,0.062-0.108,0.023-0.161c-0.039-0.051-0.111-0.061-0.162-0.019   l-1.74,1.346c-0.118-0.105-0.387-0.307-0.826-0.395v-0.971c0-0.09-0.073-0.162-0.163-0.162s-0.162,0.072-0.162,0.162v0.925h-0.002   h-0.002c-0.285-0.03-0.604-0.03-0.938-0.006c0.002-2.39-0.002-2.753-0.007-2.812h0.005c-0.002-0.049-0.026-0.088-0.074-0.113   c-0.085-0.045-0.236-0.035-0.322,0.019c-0.042,0.031-0.065,0.067-0.061,0.108v0.135c-0.009,0.003-0.015,0.003-0.024,0.01   c-0.514,0.495-1.36,0.65-2.272,0.426c-0.057-0.017-0.112,0.018-0.135,0.07c-0.021,0.054,0.003,0.113,0.053,0.145   c0.068,0.04,0.345,0.254,0.436,0.613c0.078,0.298,0.012,0.62-0.196,0.956c-0.027,0.046-0.021,0.104,0.016,0.144   c0.021,0.02,0.051,0.032,0.082,0.032c0.02,0,0.039-0.004,0.059-0.017c0.006-0.003,0.671-0.399,1.316-0.399   c0.263,0,0.487,0.067,0.667,0.195v0.522c-0.485,0.058-1.007,0.163-1.563,0.316c-0.016,0.003-0.027,0.011-0.039,0.02   c-2.499,1.922-2.667,4.49-2.669,5.102c-0.41-0.116-0.823-0.237-0.973-0.372c-0.008-0.009-0.02-0.005-0.027-0.012   c-0.325-0.419-0.897-0.843-0.921-0.859c-0.051-0.043-0.121-0.026-0.159,0.024c-0.039,0.051-0.027,0.127,0.022,0.162   c0.006,0.004,0.553,0.412,0.861,0.798c-0.101,0.214-0.258,0.747,0.333,1.267c0.193,0.171,0.183,0.531,0.171,0.912   c-0.002,0.066-0.003,0.137-0.003,0.208c-0.243-0.061-0.489-0.119-0.979-0.119c-0.491,0-0.737,0.059-0.98,0.119   c-0.236,0.06-0.46,0.111-0.922,0.111c-0.461,0-0.687-0.052-0.924-0.111c-0.202-0.049-0.418-0.097-0.77-0.114   c-2.965-1.965-5.306-4.835-6.62-8.227c-0.004-0.009-0.005-0.015-0.008-0.021c-0.104-0.268-0.202-0.537-0.292-0.812   c-0.008-0.021-0.014-0.039-0.018-0.057c-0.086-0.261-0.167-0.521-0.239-0.787c-0.008-0.034-0.02-0.068-0.028-0.105   c-0.068-0.248-0.128-0.497-0.184-0.751c-0.012-0.051-0.023-0.102-0.036-0.152c-0.011-0.06-0.021-0.115-0.033-0.175   c0.006,0.028,0.012,0.06,0.016,0.089H46.82C45.865,69.593,43.146,73.52,39.412,76.009 M28.348,66.884   c-0.051-0.193-0.142-0.354-0.238-0.479c0.631,0.087,1.224-0.003,1.693-0.249c-0.152,0.328-0.249,0.795,0.043,1.338   c-0.127-0.036-0.264-0.051-0.409-0.051c-0.436,0-0.869,0.15-1.151,0.276C28.396,67.436,28.416,67.156,28.348,66.884 M46.846,64.532   H13.144c-0.026-0.137-0.054-0.272-0.077-0.408c-0.008-0.051-0.016-0.095-0.025-0.143h7.016c0.024,0,0.049-0.006,0.069-0.021   l0.685-0.491h18.268l0.684,0.491c0.02,0.015,0.045,0.021,0.067,0.021h7.121C46.922,64.166,46.882,64.35,46.846,64.532    M22.693,63.23h-0.71 M24.893,63.23h-1.998 M26.349,63.23h-1.255 M34.858,63.23h-1.252 M37.053,63.23H35.06 M37.907,63.23h-0.65    M21.78,63.23h-1.007c-0.024,0-0.049,0.007-0.068,0.024l-0.683,0.488h-7.572c0.008,0.058,0.013,0.116,0.023,0.176   c-0.037-0.232-0.068-0.471-0.096-0.706c-0.01-0.08-0.021-0.162-0.032-0.243c-0.023-0.235-0.04-0.473-0.056-0.71   c-0.007-0.081-0.014-0.163-0.019-0.243c-0.017-0.318-0.025-0.638-0.025-0.959V50.618h34.832v10.392h0.574   c-0.006,0.011-0.574,0.03-0.574,0.048c0,0.913-0.074,1.807-0.206,2.686h-7.003l-0.686-0.488c-0.02-0.018-0.042-0.024-0.067-0.024   h-1.007"></path>
	<path fill="#FFFFFF" d="M50.125,17.823c-0.038-0.082-0.109-0.143-0.194-0.172c-0.315-0.112-0.634-0.223-0.954-0.323l0,0   c-0.011-0.007-0.02-0.009-0.031-0.009c-0.029-0.012-0.061-0.016-0.095-0.016c-0.002,0-0.003-0.003-0.006-0.003h-0.003h-0.018   c-0.006,0-0.014,0.005-0.025,0.007c-0.026,0.002-0.053,0.012-0.08,0.021c-0.005,0.001-0.011,0.001-0.018,0.003l-0.363,0.161   c-0.064-0.019-0.13-0.043-0.194-0.063l0.003-0.012c0.056-0.18-0.044-0.371-0.222-0.427c-0.342-0.107-0.684-0.206-1.027-0.306   c-0.029-0.009-0.058-0.012-0.087-0.012c0,0-0.002-0.004-0.004-0.004h-0.002h-0.007h-0.003c-0.053,0.004-0.1,0.016-0.141,0.036   l-0.358,0.173c-0.064-0.017-0.132-0.036-0.197-0.052l0.006-0.017c0.046-0.18-0.06-0.369-0.24-0.416   c-0.354-0.099-0.712-0.189-1.068-0.28c-0.027-0.007-0.054-0.009-0.083-0.009c-0.042,0-0.081,0.009-0.119,0.026   c-0.01,0.002-0.022,0.011-0.031,0.015c-0.027,0.014-0.052,0.031-0.073,0.053c-0.006,0.006-0.015,0.008-0.021,0.011L43.737,17   c-0.041,0.044-0.07,0.097-0.085,0.154l-0.269,1.139l-0.179,0.771c0,0,0,0.005,0,0.01c-0.75-0.176-1.505-0.343-2.267-0.49l0.5-0.523   c0.007-0.007,0.007-0.015,0.012-0.021c0.031-0.035,0.055-0.078,0.066-0.125c0.005-0.009,0.008-0.015,0.01-0.021l0.002-0.007   l0.396-2.071c0.018-0.09-0.002-0.183-0.054-0.259c-0.049-0.072-0.127-0.124-0.213-0.142c-0.339-0.067-0.68-0.13-1.021-0.189   c-0.018-0.005-0.035-0.005-0.052-0.005h-0.002h-0.004h-0.005c-0.037,0-0.069,0.007-0.103,0.018   c-0.011,0.002-0.022,0.009-0.03,0.015c-0.016,0.009-0.031,0.014-0.044,0.021l-0.322,0.201c-0.069-0.012-0.145-0.022-0.215-0.034   v-0.004c0.028-0.188-0.097-0.362-0.279-0.391c-0.353-0.057-0.706-0.11-1.061-0.16c-0.016-0.002-0.031-0.002-0.048-0.002   c-0.006,0-0.008,0.002-0.016,0.002c-0.029,0.001-0.062,0.005-0.091,0.018c-0.013,0.002-0.024,0.011-0.036,0.018   c-0.016,0.007-0.029,0.009-0.042,0.021l-0.32,0.215c-0.07-0.01-0.144-0.021-0.216-0.026l0.002-0.005   c0.009-0.09-0.017-0.181-0.07-0.254c-0.055-0.067-0.136-0.115-0.225-0.127c-0.364-0.043-0.731-0.086-1.1-0.125h-0.031h-0.002   c-0.05,0-0.095,0.015-0.138,0.032c-0.014,0.007-0.023,0.016-0.035,0.022c-0.031,0.02-0.058,0.042-0.08,0.068   c-0.006,0.01-0.017,0.012-0.022,0.019l-0.617,0.886c-0.033,0.048-0.057,0.105-0.06,0.164l-0.11,1.164l-0.076,0.787l0.002,0.012   c-0.741-0.065-1.486-0.121-2.237-0.16c0.106-0.141,0.233-0.343,0.382-0.644v-0.002c0.02-0.041,0.029-0.086,0.033-0.135l0.108-2.108   c0.005-0.091-0.026-0.18-0.086-0.246c-0.062-0.066-0.147-0.109-0.235-0.113l-1.166-0.047h-0.008h-0.004h-0.013h-0.014   c-0.085,0-0.164,0.029-0.229,0.09c-0.026,0.025-0.046,0.058-0.063,0.091l-0.66,0.637l0.005-0.505   c0.002-0.091-0.032-0.181-0.095-0.244c-0.066-0.063-0.149-0.1-0.239-0.1l-0.72-0.005h-0.003l-0.721,0.005   c-0.09,0-0.175,0.036-0.238,0.1c-0.064,0.063-0.099,0.153-0.097,0.244l0.003,0.505l-0.658-0.637   c-0.018-0.033-0.036-0.065-0.065-0.091c-0.062-0.061-0.144-0.09-0.229-0.09h-0.014h-0.01h-0.005h-0.007l-1.168,0.047   c-0.089,0.004-0.172,0.047-0.232,0.113c-0.061,0.066-0.092,0.155-0.086,0.246l0.107,2.108c0.003,0.049,0.016,0.094,0.035,0.135   c0.151,0.31,0.275,0.511,0.384,0.651c-0.75,0.041-1.498,0.097-2.242,0.166c0,0,0.002-0.016,0.001-0.023l-0.074-0.787l-0.11-1.164   c-0.005-0.059-0.027-0.116-0.061-0.164l-0.618-0.886c-0.005-0.009-0.015-0.011-0.022-0.019c-0.023-0.026-0.046-0.049-0.077-0.068   c-0.013-0.007-0.022-0.016-0.037-0.022c-0.042-0.018-0.088-0.032-0.138-0.032h-0.034c-0.367,0.039-0.733,0.082-1.097,0.125   c-0.089,0.012-0.169,0.06-0.225,0.127c-0.055,0.073-0.079,0.164-0.07,0.254l0.024,0.197l-0.56-0.381   c-0.012-0.012-0.028-0.017-0.042-0.021c-0.012-0.008-0.022-0.016-0.035-0.018c-0.03-0.013-0.062-0.017-0.094-0.018   c-0.005,0-0.01-0.002-0.013-0.002c-0.015,0-0.031,0-0.047,0.002c-0.354,0.05-0.708,0.104-1.062,0.16   c-0.18,0.028-0.307,0.202-0.276,0.391l0.027,0.192l-0.572-0.359c-0.006-0.002-0.012-0.002-0.016-0.004   c-0.049-0.028-0.102-0.046-0.16-0.046h-0.001c-0.02,0-0.038,0-0.058,0.005c-0.34,0.06-0.68,0.122-1.02,0.189   c-0.086,0.018-0.165,0.069-0.214,0.142c-0.051,0.076-0.07,0.169-0.053,0.259l0.396,2.071c0,0,0.002,0.007,0.004,0.009   c0,0,0.004,0.011,0.006,0.019c0.014,0.048,0.039,0.091,0.069,0.128c0.004,0.005,0.004,0.013,0.01,0.02l0.507,0.532   c-0.762,0.149-1.519,0.312-2.271,0.491c-0.001-0.01,0-0.015,0-0.015l-0.184-0.775l-0.268-1.139   c-0.014-0.058-0.041-0.11-0.083-0.154l-0.732-0.791c-0.005-0.003-0.012-0.008-0.02-0.014c-0.021-0.019-0.045-0.036-0.071-0.05   c-0.011-0.004-0.021-0.013-0.034-0.015c-0.039-0.018-0.08-0.026-0.121-0.026c-0.027,0-0.053,0.002-0.082,0.009   c-0.356,0.091-0.714,0.182-1.068,0.28c-0.178,0.047-0.286,0.236-0.238,0.416l0.049,0.188l-0.605-0.294   c-0.047-0.023-0.096-0.034-0.144-0.034c-0.032,0-0.062,0.005-0.094,0.016c-0.345,0.1-0.685,0.198-1.028,0.306   c-0.178,0.056-0.278,0.247-0.223,0.427l0.055,0.186l-0.616-0.273c-0.004-0.001-0.009-0.001-0.012-0.001   c-0.04-0.019-0.079-0.027-0.122-0.027c-0.034,0-0.069,0.005-0.104,0.019c-0.329,0.103-0.659,0.217-0.984,0.331   c-0.085,0.03-0.154,0.091-0.193,0.173c-0.04,0.079-0.046,0.175-0.017,0.261l0.675,1.998c0.001,0.002,0.005,0.005,0.005,0.005   c0.003,0.008,0.006,0.015,0.011,0.021c0.019,0.044,0.048,0.081,0.083,0.114c0.007,0.006,0.008,0.013,0.012,0.014l0.733,0.589   c0.011,0.005,0.023,0.008,0.036,0.017c0.007,0.005,0.013,0.013,0.022,0.018c0.006,0.001,0.011,0,0.018,0.003   c0.019,0.01,0.041,0.01,0.061,0.018l2.215,6.744v-0.003v0.003l1.074,3.271h0.029c0.643,1.238,8.167,2.053,15.22,2.053   c7.055,0,14.58-0.814,15.221-2.053h0.029l1.074-3.273v0.003l2.215-6.741c0.012,0,0.025,0,0.035-0.003   c0.009-0.006,0.015-0.012,0.019-0.012c0.029-0.014,0.055-0.023,0.079-0.043h0.002l0.735-0.589c0.009-0.001,0.011-0.009,0.017-0.014   c0.034-0.033,0.062-0.07,0.08-0.114c0.004-0.007,0.009-0.014,0.012-0.02c0,0,0.003-0.005,0.005-0.007l0.672-1.998   C50.169,17.998,50.166,17.902,50.125,17.823 M43.614,19.522l-0.315,1.292c-0.955-0.232-1.915-0.447-2.883-0.632l0.236-1.309   C41.647,19.063,42.633,19.284,43.614,19.522 M43.091,21.67l-1.07,4.37c-0.852-0.206-1.707-0.394-2.569-0.555l0.808-4.438   C41.21,21.231,42.153,21.438,43.091,21.67 M36.325,14.958c0.366,0.037,0.729,0.081,1.093,0.123l-0.113,0.938   c0.347,0.041,0.694,0.09,1.04,0.136l0.131-0.931c0.351,0.049,0.7,0.1,1.051,0.157l-0.143,0.93c0.345,0.057,0.689,0.115,1.033,0.179   l0.161-0.932c0.339,0.061,0.679,0.123,1.015,0.188l-0.396,2.076c-1.672-0.328-3.368-0.581-5.087-0.761L36.325,14.958z    M36.83,18.283c1.169,0.143,2.342,0.315,3.493,0.528l-1.201,6.604c-0.237-0.042-0.475-0.074-0.712-0.115l0.31-1.892   c0.044-0.302-0.023-0.604-0.189-0.833c-0.144-0.193-0.342-0.315-0.565-0.349h-0.007c-0.497-0.07-0.971,0.338-1.055,0.916   l-0.255,1.895c-0.188-0.023-0.378-0.054-0.567-0.076L36.83,18.283z M35.656,18.159l-0.136,1.324   c-0.978-0.099-1.956-0.174-2.94-0.22l0.056-1.331C33.647,17.979,34.655,18.061,35.656,18.159 M35.431,20.36l-0.465,4.492   c-0.868-0.086-1.741-0.153-2.618-0.194l0.194-4.513C33.51,20.189,34.472,20.268,35.431,20.36 M26.859,16.816L26.859,16.816   l-0.108-2.107l0.822-0.036l0.368-0.016l0.034,0.941c0,0,0.413-0.01,0.592-0.016c0.214-0.007,0.666-0.014,0.666-0.014l-0.007-0.943   l0.719-0.001l0.722,0.001l-0.009,0.943c0,0,0.453,0.007,0.668,0.014c0.18,0.006,0.593,0.016,0.593,0.016l0.031-0.941l0.367,0.016   l0.824,0.036l-0.091,1.767l-0.02,0.341c-1.022-0.055-2.051-0.082-3.086-0.082C28.91,16.734,27.882,16.761,26.859,16.816    M29.986,21.627h-0.013h-0.056h-0.011c-0.629,0.021-1.134,0.486-1.135,1.062l0.034,1.923c-0.194,0.002-0.39,0.011-0.582,0.016   c-0.114,0.007-0.229,0.006-0.344,0.011l-0.286-6.722c0.779-0.033,1.568-0.05,2.352-0.05c0.787,0,1.577,0.017,2.356,0.05   l-0.287,6.722c-0.31-0.014-0.619-0.014-0.927-0.02l0.034-1.934C31.119,22.114,30.613,21.649,29.986,21.627 M27.544,24.656   c-0.876,0.041-1.75,0.104-2.621,0.188l-0.462-4.478c0.958-0.092,1.919-0.168,2.889-0.216L27.544,24.656z M27.257,17.94l0.055,1.328   c-0.983,0.051-1.963,0.127-2.942,0.224l-0.135-1.322C25.238,18.068,26.245,17.989,27.257,17.94 M21.17,23.413l0.309,1.888   c-0.233,0.041-0.474,0.073-0.709,0.115l-1.202-6.604c1.153-0.213,2.325-0.386,3.496-0.528l0.745,6.679   c-0.188,0.022-0.377,0.053-0.565,0.076l-0.255-1.899c-0.085-0.575-0.558-0.979-1.058-0.911h-0.005   c-0.225,0.033-0.424,0.155-0.563,0.349C21.192,22.805,21.125,23.107,21.17,23.413 M20.44,25.486   c-0.862,0.161-1.721,0.342-2.571,0.548l-1.067-4.358c0.936-0.229,1.879-0.436,2.833-0.618L20.44,25.486z M18.693,17.821   l-0.396-2.076c0.338-0.064,0.676-0.127,1.016-0.188l0.161,0.932c0.343-0.063,0.688-0.122,1.036-0.179l-0.146-0.93   c0.35-0.058,0.702-0.108,1.053-0.157l0.13,0.931c0.344-0.046,0.691-0.095,1.038-0.136l-0.111-0.938   c0.362-0.042,0.727-0.086,1.091-0.123l0.218,2.103C22.061,17.24,20.365,17.493,18.693,17.821 M19.239,18.884l0.237,1.308   c-0.966,0.185-1.926,0.396-2.883,0.633l-0.313-1.295C17.261,19.292,18.248,19.073,19.239,18.884 M11.116,19.85   c-0.016,0.005-0.029,0.008-0.042,0.014c-0.112,0.035-0.223,0.07-0.333,0.108l-0.109-0.324l-0.565-1.676   c0.325-0.11,0.652-0.225,0.98-0.331l0.282,0.885c0.333-0.107,0.667-0.216,1.002-0.317l-0.128-0.427l-0.139-0.463   c0.231-0.074,0.464-0.143,0.699-0.213c0.106-0.032,0.213-0.065,0.323-0.097l0.252,0.896c0.335-0.095,0.672-0.189,1.01-0.282   l-0.116-0.434l-0.121-0.467c0.245-0.067,0.491-0.13,0.738-0.193c0.109-0.025,0.217-0.057,0.325-0.084l0.501,2.047   C14.129,18.884,12.609,19.338,11.116,19.85 M12.562,23.317H12.56l-0.816-2.491c1.119-0.375,2.255-0.713,3.39-1.019l1.65,6.505   c-0.181,0.049-0.36,0.104-0.542,0.15l-0.507-1.834c-0.163-0.554-0.687-0.894-1.169-0.756c-0.003,0-0.006,0-0.009,0.003   c-0.215,0.063-0.396,0.212-0.51,0.428c-0.134,0.25-0.161,0.555-0.076,0.852l0.562,1.817c-0.233,0.073-0.467,0.144-0.7,0.22   L12.562,23.317z M45.024,30.336c-1.212-1.295-8.075-2.797-15.08-2.797c-7.003,0-13.867,1.502-15.077,2.797l-0.761-2.313   c5.087-1.693,10.405-2.557,15.811-2.557h0.055c5.406,0,10.727,0.863,15.811,2.557L45.024,30.336z M47.33,23.317L47.33,23.317   l-1.273,3.875c-0.229-0.076-0.465-0.146-0.7-0.22l0.563-1.822c0.086-0.292,0.058-0.602-0.075-0.85   c-0.113-0.213-0.296-0.361-0.51-0.425c-0.004-0.003-0.006-0.003-0.01-0.003c-0.485-0.138-1.007,0.202-1.168,0.756l-0.509,1.834   c-0.181-0.052-0.36-0.102-0.541-0.15l1.65-6.505c1.132,0.306,2.271,0.644,3.389,1.019L47.33,23.317z M49.147,19.972   c-1.616-0.562-3.262-1.055-4.935-1.479l0.5-2.047c0.358,0.087,0.713,0.184,1.064,0.277l-0.236,0.9   c0.339,0.093,0.673,0.188,1.012,0.282l0.252-0.896c0.342,0.101,0.682,0.201,1.021,0.31l-0.267,0.89   c0.336,0.102,0.669,0.21,1.002,0.317l0.281-0.885c0.329,0.106,0.654,0.221,0.982,0.331L49.147,19.972z"></path>
	<path fill="#FFFFFF" d="M31.196,68.606c-0.113,0.078-0.22,0.168-0.326,0.253c-0.095,0.08-0.186,0.163-0.276,0.248   c-0.169,0.167-0.332,0.342-0.474,0.53c-0.1,0.136-0.194,0.272-0.279,0.413c-0.745,1.26-0.513,3.009,0.153,4.143   c-0.746-0.247-1.54-0.372-2.371-0.372c-0.796,0-1.401,0.116-1.666,0.177c0.004-0.62,0.181-3.127,2.639-5.026   c0.271-0.076,0.531-0.136,0.785-0.188c0.009-0.003,0.018-0.003,0.027-0.003C30.066,68.646,30.667,68.585,31.196,68.606"></path>
	<path fill="#FFFFFF" d="M34.41,67.862c0.062,0.074,0.138,0.165,0.158,0.211c0.103,0.218-0.04,0.492-0.225,0.635   c-0.184,0.145-0.445,0.163-0.667,0.047c-0.02-0.021-0.05-0.022-0.077-0.015c-0.041,0.015-0.064,0.06-0.054,0.099   c0.059,0.249-0.026,0.506-0.217,0.654c-0.185,0.143-0.447,0.162-0.666,0.043c-0.021-0.015-0.052-0.021-0.08-0.01   c-0.04,0.014-0.062,0.057-0.055,0.096c0.06,0.252-0.025,0.508-0.214,0.655c-0.096,0.07-0.21,0.111-0.329,0.122   c-0.004,0-0.009-0.003-0.015-0.003c-0.106,0.005-0.222-0.018-0.326-0.074c-0.022-0.02-0.053-0.021-0.083-0.008   c-0.037,0.012-0.056,0.056-0.047,0.094c0.059,0.252-0.025,0.507-0.218,0.653c-0.025,0.019-0.055,0.034-0.083,0.047   c-0.045,0.025-0.087,0.044-0.135,0.052c-0.004,0.001-0.008,0.001-0.012,0.004c-0.043,0.008-0.087,0.018-0.131,0.018   c-0.018,0-0.038-0.004-0.055-0.006c-0.032-0.004-0.064-0.007-0.096-0.012c-0.054-0.012-0.108-0.03-0.157-0.06   c-0.025-0.016-0.062-0.021-0.09-0.002c-0.031,0.017-0.05,0.055-0.041,0.091c0.057,0.249-0.026,0.508-0.216,0.655   c-0.11,0.082-0.245,0.118-0.382,0.113c-0.016,0-0.032,0-0.049-0.002c-0.078-0.009-0.153-0.027-0.225-0.063   c0-0.118,0.006-0.233,0.018-0.35l0.476-0.369L31.9,69.8L34.41,67.862z"></path>
	<path fill="#FFFFFF" d="M33.864,72.809c-0.035,0.025-0.071,0.039-0.109,0.054h-0.003c-0.038,0.014-0.079,0.02-0.12,0.02   c-0.074,0-0.151-0.018-0.217-0.057c-0.025-0.017-0.06-0.023-0.086-0.012c-0.037,0.015-0.059,0.057-0.049,0.098   c0.035,0.17-0.028,0.343-0.159,0.438c-0.127,0.092-0.305,0.102-0.448,0.019c-0.021-0.017-0.049-0.025-0.077-0.017   c-0.043,0.014-0.068,0.055-0.059,0.102c0.03,0.15-0.059,0.355-0.207,0.461c-0.027,0.022-0.065,0.033-0.106,0.04   c-0.017,0.007-0.034,0.007-0.054,0.009c-0.02,0.003-0.043,0.005-0.063,0.005c-0.03-0.002-0.06-0.005-0.084-0.01   c-0.01-0.004-0.016-0.004-0.025-0.004c-0.036-0.007-0.065-0.015-0.097-0.028c-0.024-0.012-0.054-0.02-0.069-0.035v-0.127   l2.824-2.03c0.038,0.063,0.074,0.132,0.084,0.153c0.049,0.146,0.001,0.282-0.133,0.379c-0.127,0.095-0.304,0.104-0.45,0.021   c-0.018-0.02-0.044-0.021-0.073-0.02c-0.043,0.014-0.069,0.057-0.06,0.102C34.057,72.538,33.995,72.71,33.864,72.809"></path>
	<path fill="#FFFFFF" d="M27.125,74.885c0.474,0.799,0.711,0.827,1.591,0.938c0.124,0.018,0.257,0.03,0.405,0.052l0.068,0.009   c0.506,0.069,1.028,0.144,1.487,0.144c0.13,0,0.249-0.01,0.357-0.019c0.078-0.011,0.146-0.023,0.213-0.04   c0.023-0.007,0.05-0.01,0.073-0.016c0.081-0.023,0.152-0.049,0.216-0.083c0.004-0.001,0.007-0.004,0.011-0.006   c0.069-0.032,0.127-0.073,0.18-0.12c0.027-0.024,0.059-0.042,0.081-0.066c0.042-0.052,0.067-0.114,0.095-0.177   c0.019-0.044,0.032-0.089,0.048-0.136c0.013-0.072,0.03-0.146,0.03-0.229c0.196,0.035,0.402,0.052,0.61,0.052   c1.138,0,2.158-0.497,2.619-0.763c-0.088,0.262-0.244,0.612-0.406,0.665c-0.044,0.016-0.074,0.056-0.08,0.103   c-0.056,0.551-0.349,0.585-0.36,0.585c-0.03,0.003-0.06,0.02-0.08,0.044c-0.022,0.025-0.033,0.053-0.03,0.087   c0.011,0.144,0.011,0.271,0.004,0.386v0.002c-0.015,0.303-0.081,0.522-0.159,0.684c-0.117,0.024-0.249,0.045-0.423,0.053   c-0.059,0.002-0.121,0.007-0.191,0.007c-0.426,0-0.633-0.06-0.854-0.115c-0.224-0.063-0.458-0.128-0.917-0.128   c-0.457,0-0.688,0.064-0.913,0.128c-0.222,0.056-0.43,0.115-0.856,0.115c-0.428,0-0.636-0.06-0.856-0.115   c-0.224-0.063-0.457-0.128-0.916-0.128c-0.459,0-0.692,0.064-0.916,0.128c-0.221,0.056-0.43,0.115-0.856,0.115   c-0.427,0-0.635-0.06-0.855-0.115c-0.068-0.022-0.14-0.038-0.216-0.056h0.002c-0.022-0.056-0.039-0.116-0.052-0.178   c-0.027-0.133-0.035-0.282-0.035-0.433v-0.003c0-0.088,0.002-0.173,0.003-0.258c0.013-0.432,0.027-0.878-0.257-1.127   c-0.457-0.402-0.382-0.792-0.307-0.979c0.232,0.144,0.612,0.25,1.041,0.373C26.306,74.434,26.967,74.624,27.125,74.885"></path>
	<path fill="#FFFFFF" d="M28.348,66.884c-0.051-0.193-0.142-0.354-0.238-0.479c0.631,0.088,1.224-0.002,1.693-0.248   c-0.152,0.328-0.249,0.795,0.043,1.338c-0.127-0.035-0.264-0.051-0.41-0.051c-0.435,0-0.868,0.15-1.15,0.276   C28.396,67.436,28.416,67.155,28.348,66.884"></path>
	<path fill="#FFFFFF" d="M47.219,61.009V50.618H12.246v10.44c0,0.32,0.009,0.64,0.025,0.958c0.005,0.08,0.012,0.162,0.019,0.243   c0.015,0.237,0.033,0.475,0.056,0.71c0.011,0.081,0.021,0.163,0.032,0.243c0.028,0.235,0.059,0.474,0.095,0.706   c-0.009-0.06-0.014-0.118-0.023-0.176h7.573l0.683-0.488c0.019-0.018,0.042-0.024,0.067-0.024h1.008h16.329h1.007   c0.025,0,0.047,0.007,0.067,0.024l0.686,0.488h7.144c0.131-0.879,0.206-1.772,0.206-2.685c0-0.019,0.002-0.038,0.008-0.049H47.219z    M22.398,62.995h-0.617V57.35c0-0.186,0.145-0.329,0.321-0.329h0.276V57.02h0.02V62.995z M33.457,62.995h-0.69   c0.008-1.458-0.018-1.837-0.018-1.837c0-1.849-1.357-2.576-2.771-2.562c-1.15,0.013-2.801,0.714-2.801,2.562   c0,0-0.023,0.379-0.019,1.837h-0.662c-0.01-1.686-0.009-2.338-0.009-2.338c0-1.897,1.598-3.503,3.489-3.503   c1.892,0,3.487,1.601,3.487,3.494C33.464,60.648,33.468,61.309,33.457,62.995 M34.554,62.995h-0.798   c0.01-1.686,0.01-2.348,0.01-2.348c0-2.058-1.736-3.793-3.789-3.797c-2.053,0.004-3.79,1.745-3.79,3.807c0,0,0,0.652,0.01,2.338   h-0.781 M25.096,62.995h-2.4v-6.739v-0.305v-1.378c0.007-0.146,0.125-0.267,0.272-0.267h1.534h0.319   c0.151,0,0.275,0.126,0.275,0.275v0.285h0.32h9.138h0.3h0.006v-0.174v-0.111c0-0.149,0.123-0.275,0.272-0.275h1.53h0.319   c0.15,0,0.271,0.126,0.271,0.275v0.111h0.004v1.258v0.305v0.766v5.974h-2.403 M38.109,62.995h-0.553v-5.974h0.231   c0.177,0,0.321,0.144,0.321,0.329V62.995z"></path>
</g>
</svg>
